<svg width="135" height="45" viewBox="0 0 135 45" fill="none" xmlns="http://www.w3.org/2000/svg">
<rect x="0.5625" y="0.5625" width="133.875" height="43.875" rx="7.3125" fill="black"/>
<rect x="0.5625" y="0.5625" width="133.875" height="43.875" rx="7.3125" stroke="#A6A6A6" stroke-width="1.125"/>
<path d="M91.7165 21.6012V24.1785H90.101V25.8688H91.7165V31.6119C91.7165 33.573 92.6037 34.3574 94.8355 34.3574C95.2277 34.3574 95.6013 34.3107 95.9281 34.2547V32.5831C95.648 32.6111 95.4705 32.6298 95.1624 32.6298C94.1632 32.6298 93.7243 32.1629 93.7243 31.0983V25.8688H95.9281V24.1785H93.7243V21.6012H91.7165Z" fill="white"/>
<path d="M101.614 34.4975C104.583 34.4975 106.404 32.5084 106.404 29.2119C106.404 25.9342 104.574 23.9357 101.614 23.9357C98.6441 23.9357 96.8138 25.9342 96.8138 29.2119C96.8138 32.5084 98.6348 34.4975 101.614 34.4975ZM101.614 32.7138C99.8674 32.7138 98.8869 31.4345 98.8869 29.2119C98.8869 27.0081 99.8674 25.7194 101.614 25.7194C103.351 25.7194 104.341 27.0081 104.341 29.2119C104.341 31.4251 103.351 32.7138 101.614 32.7138Z" fill="white"/>
<path d="M107.962 34.3013H109.97V28.2968C109.97 26.868 111.044 25.9061 112.566 25.9061C112.921 25.9061 113.519 25.9715 113.687 26.0275V24.0478C113.472 23.9918 113.089 23.9638 112.79 23.9638C111.464 23.9638 110.334 24.6922 110.045 25.6914H109.895V24.1319H107.962V34.3013Z" fill="white"/>
<path d="M118.672 25.6447C120.157 25.6447 121.128 26.6812 121.175 28.2781H116.039C116.151 26.6906 117.187 25.6447 118.672 25.6447ZM121.165 31.5559C120.792 32.3496 119.961 32.7885 118.747 32.7885C117.14 32.7885 116.104 31.6586 116.039 29.875V29.7629H123.22V29.0625C123.22 25.8688 121.511 23.9357 118.681 23.9357C115.814 23.9357 113.993 25.9995 113.993 29.2493C113.993 32.499 115.777 34.4975 118.691 34.4975C121.016 34.4975 122.641 33.3768 123.098 31.5559H121.165Z" fill="white"/>
<path d="M78.55 30.5459C78.7048 33.0431 80.7858 34.6401 83.8831 34.6401C87.1933 34.6401 89.2646 32.9657 89.2646 30.2943C89.2646 28.1939 88.0838 27.0325 85.2188 26.3646L83.6798 25.9871C81.8602 25.5612 81.1246 24.9902 81.1246 23.9933C81.1246 22.735 82.2667 21.9123 83.9799 21.9123C85.6059 21.9123 86.7287 22.7156 86.932 24.0029H89.042C88.9161 21.651 86.8449 19.9958 84.0089 19.9958C80.96 19.9958 78.9275 21.651 78.9275 24.1384C78.9275 26.1904 80.0793 27.4099 82.6055 28.0003L84.4058 28.4359C86.2544 28.8715 87.0675 29.5103 87.0675 30.5749C87.0675 31.8139 85.7898 32.714 84.0476 32.714C82.1796 32.714 80.8826 31.8719 80.6987 30.5459H78.55Z" fill="white"/>
<path d="M57.7517 23.9638C56.3697 23.9638 55.1743 24.6548 54.558 25.8128H54.4086V24.1319H52.4755V37.6818H54.4833V32.7605H54.6421C55.1743 33.8344 56.323 34.4694 57.7704 34.4694C60.3385 34.4694 61.9727 32.443 61.9727 29.2119C61.9727 25.9809 60.3385 23.9638 57.7517 23.9638ZM57.1821 32.6671C55.5012 32.6671 54.4459 31.3411 54.4459 29.2213C54.4459 27.0921 55.5012 25.7661 57.1914 25.7661C58.891 25.7661 59.9089 27.0641 59.9089 29.2119C59.9089 31.3691 58.891 32.6671 57.1821 32.6671Z" fill="white"/>
<path d="M68.9981 23.9638C67.616 23.9638 66.4207 24.6548 65.8044 25.8128H65.655V24.1319H63.7219V37.6818H65.7297V32.7605H65.8884C66.4207 33.8344 67.5694 34.4694 69.0168 34.4694C71.5849 34.4694 73.2191 32.443 73.2191 29.2119C73.2191 25.9809 71.5849 23.9638 68.9981 23.9638ZM68.4285 32.6671C66.7476 32.6671 65.6923 31.3411 65.6923 29.2213C65.6923 27.0921 66.7476 25.7661 68.4378 25.7661C70.1374 25.7661 71.1553 27.0641 71.1553 29.2119C71.1553 31.3691 70.1374 32.6671 68.4285 32.6671Z" fill="white"/>
<path d="M48.8733 34.3013H51.1769L46.1342 20.3346H43.8015L38.7588 34.3013H40.9849L42.2723 30.5943H47.5957L48.8733 34.3013ZM44.8565 22.8705H45.0211L47.044 28.7747H42.824L44.8565 22.8705Z" fill="white"/>
<path d="M40.1079 9.79977V16.5374H42.5406C44.5483 16.5374 45.7109 15.3001 45.7109 13.1476C45.7109 11.0278 44.539 9.79977 42.5406 9.79977H40.1079ZM41.1538 10.7523H42.4238C43.8199 10.7523 44.6464 11.6394 44.6464 13.1616C44.6464 14.7071 43.8339 15.5849 42.4238 15.5849H41.1538V10.7523Z" fill="white"/>
<path d="M49.2717 16.6355C50.7565 16.6355 51.667 15.6409 51.667 13.9927C51.667 12.3538 50.7518 11.3546 49.2717 11.3546C47.7869 11.3546 46.8717 12.3538 46.8717 13.9927C46.8717 15.6409 47.7822 16.6355 49.2717 16.6355ZM49.2717 15.7437C48.3985 15.7437 47.9083 15.104 47.9083 13.9927C47.9083 12.8908 48.3985 12.2464 49.2717 12.2464C50.1401 12.2464 50.6351 12.8908 50.6351 13.9927C50.6351 15.0993 50.1401 15.7437 49.2717 15.7437Z" fill="white"/>
<path d="M59.4206 11.4527H58.4167L57.5109 15.3328H57.4315L56.3856 11.4527H55.4238L54.3779 15.3328H54.3032L53.3927 11.4527H52.3748L53.7756 16.5374H54.8075L55.8534 12.7927H55.9327L56.9833 16.5374H58.0245L59.4206 11.4527Z" fill="white"/>
<path d="M60.5767 16.5374H61.5806V13.5631C61.5806 12.7694 62.0522 12.2744 62.7946 12.2744C63.537 12.2744 63.8918 12.6807 63.8918 13.4978V16.5374H64.8957V13.2456C64.8957 12.0363 64.27 11.3546 63.1354 11.3546C62.3697 11.3546 61.8654 11.6955 61.6179 12.2604H61.5432V11.4527H60.5767V16.5374Z" fill="white"/>
<path d="M66.4767 16.5374H67.4806V9.46826H66.4767V16.5374Z" fill="white"/>
<path d="M71.2561 16.6355C72.7409 16.6355 73.6514 15.6409 73.6514 13.9927C73.6514 12.3538 72.7362 11.3546 71.2561 11.3546C69.7713 11.3546 68.8561 12.3538 68.8561 13.9927C68.8561 15.6409 69.7666 16.6355 71.2561 16.6355ZM71.2561 15.7437C70.3829 15.7437 69.8927 15.104 69.8927 13.9927C69.8927 12.8908 70.3829 12.2464 71.2561 12.2464C72.1245 12.2464 72.6195 12.8908 72.6195 13.9927C72.6195 15.0993 72.1245 15.7437 71.2561 15.7437Z" fill="white"/>
<path d="M76.6424 15.7763C76.0962 15.7763 75.6993 15.5102 75.6993 15.0526C75.6993 14.6044 76.0168 14.3662 76.7172 14.3195L77.9592 14.2402V14.6651C77.9592 15.2954 77.3989 15.7763 76.6424 15.7763ZM76.3856 16.6215C77.0533 16.6215 77.609 16.332 77.9125 15.823H77.9918V16.5374H78.9584V13.0635C78.9584 11.9896 78.2393 11.3546 76.9646 11.3546C75.8113 11.3546 74.9896 11.9149 74.8868 12.7881H75.858C75.9701 12.4285 76.3576 12.2231 76.9179 12.2231C77.6043 12.2231 77.9592 12.5266 77.9592 13.0635V13.5024L76.5817 13.5818C75.3724 13.6565 74.6907 14.1841 74.6907 15.0993C74.6907 16.0285 75.4051 16.6215 76.3856 16.6215Z" fill="white"/>
<path d="M82.365 16.6215C83.0654 16.6215 83.6584 16.2899 83.9619 15.7343H84.0412V16.5374H85.0031V9.46826H83.9992V12.2604H83.9245C83.649 11.7001 83.0607 11.3686 82.365 11.3686C81.081 11.3686 80.2545 12.3865 80.2545 13.9927C80.2545 15.6036 81.0716 16.6215 82.365 16.6215ZM82.6498 12.2698C83.4903 12.2698 84.0179 12.9375 84.0179 13.9974C84.0179 15.062 83.4949 15.7203 82.6498 15.7203C81.8 15.7203 81.2911 15.0713 81.2911 13.9927C81.2911 12.9235 81.8047 12.2698 82.6498 12.2698Z" fill="white"/>
<path d="M91.5129 16.6355C92.9977 16.6355 93.9082 15.6409 93.9082 13.9927C93.9082 12.3538 92.993 11.3546 91.5129 11.3546C90.0281 11.3546 89.1129 12.3538 89.1129 13.9927C89.1129 15.6409 90.0234 16.6355 91.5129 16.6355ZM91.5129 15.7437C90.6397 15.7437 90.1495 15.104 90.1495 13.9927C90.1495 12.8908 90.6397 12.2464 91.5129 12.2464C92.3814 12.2464 92.8763 12.8908 92.8763 13.9927C92.8763 15.0993 92.3814 15.7437 91.5129 15.7437Z" fill="white"/>
<path d="M95.237 16.5374H96.2409V13.5631C96.2409 12.7694 96.7125 12.2744 97.4549 12.2744C98.1973 12.2744 98.5522 12.6807 98.5522 13.4978V16.5374H99.556V13.2456C99.556 12.0363 98.9304 11.3546 97.7957 11.3546C97.03 11.3546 96.5257 11.6955 96.2783 12.2604H96.2036V11.4527H95.237V16.5374Z" fill="white"/>
<path d="M104.179 10.1873V11.476H103.372V12.3211H104.179V15.1927C104.179 16.1732 104.623 16.5654 105.739 16.5654C105.935 16.5654 106.122 16.5421 106.285 16.5141V15.6783C106.145 15.6923 106.056 15.7016 105.902 15.7016C105.403 15.7016 105.183 15.4682 105.183 14.9359V12.3211H106.285V11.476H105.183V10.1873H104.179Z" fill="white"/>
<path d="M107.633 16.5374H108.637V13.5678C108.637 12.7974 109.094 12.2791 109.916 12.2791C110.626 12.2791 111.004 12.69 111.004 13.5024V16.5374H112.008V13.255C112.008 12.0457 111.34 11.3593 110.257 11.3593C109.491 11.3593 108.954 11.7001 108.707 12.2698H108.627V9.46826H107.633V16.5374Z" fill="white"/>
<path d="M115.629 12.2091C116.372 12.2091 116.857 12.7274 116.881 13.5258H114.313C114.369 12.732 114.887 12.2091 115.629 12.2091ZM116.876 15.1647C116.689 15.5616 116.274 15.781 115.667 15.781C114.863 15.781 114.345 15.216 114.313 14.3242V14.2682H117.903V13.918C117.903 12.3211 117.049 11.3546 115.634 11.3546C114.2 11.3546 113.29 12.3865 113.29 14.0114C113.29 15.6363 114.182 16.6355 115.639 16.6355C116.801 16.6355 117.614 16.0752 117.842 15.1647H116.876Z" fill="white"/>
<path d="M27.8652 22.8385C27.8896 20.9473 28.9052 19.1579 30.5164 18.1674C29.5 16.7158 27.7975 15.7954 26.0263 15.74C24.1372 15.5417 22.3057 16.8704 21.3431 16.8704C20.3617 16.8704 18.8796 15.7597 17.2835 15.7925C15.2031 15.8597 13.2636 17.0425 12.2515 18.8614C10.0757 22.6283 11.6986 28.1645 13.7828 31.2095C14.8256 32.7005 16.0443 34.366 17.6389 34.3069C19.1993 34.2422 19.7821 33.3119 21.6657 33.3119C23.5318 33.3119 24.0786 34.3069 25.7056 34.2694C27.38 34.2422 28.435 32.7717 29.4412 31.2666C30.1904 30.2042 30.7669 29.03 31.1494 27.7875C29.1816 26.9553 27.8675 24.975 27.8652 22.8385Z" fill="white"/>
<path d="M24.7921 13.7375C25.7051 12.6415 26.1549 11.2328 26.046 9.81055C24.6511 9.95704 23.3627 10.6237 22.4374 11.6776C21.5326 12.7074 21.0617 14.0913 21.1508 15.4592C22.5461 15.4735 23.9178 14.825 24.7921 13.7375Z" fill="white"/>
</svg>
