<svg width="321" height="335" viewBox="0 0 321 335" fill="none" xmlns="http://www.w3.org/2000/svg">
<rect y="74" width="82" height="82" rx="13" fill="#F8FAFB"/>
<path d="M35.7505 122C35.7505 123.933 34.1835 125.5 32.2505 125.5C30.3175 125.5 28.7505 123.933 28.7505 122M35.7505 122C35.7505 120.067 34.1835 118.5 32.2505 118.5C30.3175 118.5 28.7505 120.067 28.7505 122M35.7505 122H48.0005M28.7505 122L26.005 122C25.0868 122 24.3248 121.29 24.2594 120.375L23.5005 109.75L44.5005 104.5L58.5005 113.25M55.0005 122C55.0005 123.933 53.4335 125.5 51.5005 125.5C49.5675 125.5 48.0005 123.933 48.0005 122M55.0005 122C55.0005 120.067 53.4335 118.5 51.5005 118.5C49.5675 118.5 48.0005 120.067 48.0005 122M55.0005 122L57.6255 122L58.5005 113.25M58.5005 113.25L32.2505 111.5L28.7505 108" stroke="#297DB5" stroke-opacity="0.7" stroke-width="3" stroke-linejoin="round"/>
<rect y="180" width="82" height="82" rx="13" fill="#F8FAFB"/>
<path d="M39.4494 219.45L38.5494 218.25C38.1335 218.561 37.9087 219.067 37.9554 219.584C38.0021 220.102 38.3136 220.559 38.7786 220.791L39.4494 219.45ZM42.9856 221.218L43.8856 222.418C44.3015 222.106 44.5263 221.601 44.4796 221.083C44.4329 220.565 44.1215 220.109 43.6565 219.876L42.9856 221.218ZM29.209 217.537L29.4585 219.016C29.5112 219.007 29.5633 218.995 29.6147 218.981L29.209 217.537ZM28.3215 217.686L28.5711 219.165H28.5711L28.3215 217.686ZM29.9745 217.274L29.2437 215.964L29.2437 215.964L29.9745 217.274ZM30.7448 216.437L32.0975 217.085L32.0975 217.085L30.7448 216.437ZM52.3503 218.195L52.7633 216.753L52.7633 216.753L52.3503 218.195ZM51.5161 217.651L52.653 216.673L52.653 216.673L51.5161 217.651ZM58.5877 222.032L57.198 222.596V222.596L58.5877 222.032ZM55.4089 218.793L55.978 217.405L55.978 217.405L55.4089 218.793ZM30.862 216.174L29.4784 215.595L29.4784 215.595L30.862 216.174ZM48.1433 212.76L49.3701 211.897V211.897L48.1433 212.76ZM58.8968 226.524L57.3968 226.523V226.523L58.8968 226.524ZM58.8982 224.135L60.3982 224.136V224.136L58.8982 224.135ZM58.3774 229.541L57.3171 228.48L57.3171 228.48L58.3774 229.541ZM58.8003 222.817L60.2726 222.53L60.2725 222.53L58.8003 222.817ZM33.5861 211.201L34.417 212.45V212.45L33.5861 211.201ZM24.0447 220.984L25.4118 221.602L25.4118 221.602L24.0447 220.984ZM23.9688 221.155L22.5912 220.561L22.5911 220.561L23.9688 221.155ZM23.5369 223.16L25.0367 223.187L23.5369 223.16ZM46.4234 211.007L47.1145 209.675V209.675L46.4234 211.007ZM27.8825 217.765L27.5736 216.297H27.5736L27.8825 217.765ZM24.2322 220.58L22.891 219.908L22.891 219.908L24.2322 220.58ZM24.446 229.836L23.7179 231.148L23.7179 231.148L24.446 229.836ZM23.7584 229.149L25.0698 228.42L25.0698 228.42L23.7584 229.149ZM42.0856 215.597L38.5494 218.25L40.3494 220.65L43.8856 217.997L42.0856 215.597ZM38.7786 220.791L42.3148 222.559L43.6565 219.876L40.1202 218.108L38.7786 220.791ZM42.0856 220.018L38.5494 222.67L40.3494 225.07L43.8856 222.418L42.0856 220.018ZM34.4131 230.058C34.4131 231.183 33.5014 232.095 32.3768 232.095V235.095C35.1583 235.095 37.4131 232.84 37.4131 230.058H34.4131ZM32.3768 232.095C31.2522 232.095 30.3405 231.183 30.3405 230.058H27.3405C27.3405 232.84 29.5954 235.095 32.3768 235.095V232.095ZM30.3405 230.058C30.3405 228.934 31.2522 228.022 32.3768 228.022V225.022C29.5954 225.022 27.3405 227.277 27.3405 230.058H30.3405ZM32.3768 228.022C33.5014 228.022 34.4131 228.934 34.4131 230.058H37.4131C37.4131 227.277 35.1583 225.022 32.3768 225.022V228.022ZM52.0945 230.058C52.0945 231.183 51.1828 232.095 50.0582 232.095V235.095C52.8397 235.095 55.0945 232.84 55.0945 230.058H52.0945ZM50.0582 232.095C48.9336 232.095 48.0219 231.183 48.0219 230.058H45.0219C45.0219 232.84 47.2767 235.095 50.0582 235.095V232.095ZM48.0219 230.058C48.0219 228.934 48.9336 228.022 50.0582 228.022V225.022C47.2767 225.022 45.0219 227.277 45.0219 230.058H48.0219ZM50.0582 228.022C51.1828 228.022 52.0945 228.934 52.0945 230.058H55.0945C55.0945 227.277 52.8397 225.022 50.0582 225.022V228.022ZM35.9131 231.558H46.5191V228.558H35.9131V231.558ZM26.4453 231.558H28.8405V228.558H26.4453V231.558ZM28.9594 216.057L28.072 216.207L28.5711 219.165L29.4585 219.016L28.9594 216.057ZM29.6147 218.981C29.9406 218.889 30.3429 218.786 30.7054 218.584L29.2437 215.964C29.2699 215.949 29.274 215.952 29.2055 215.975C29.1245 216.002 29.0137 216.033 28.8032 216.092L29.6147 218.981ZM29.3922 215.788C29.3428 215.891 29.2814 215.943 29.2437 215.964L30.7054 218.584C31.323 218.239 31.7999 217.706 32.0975 217.085L29.3922 215.788ZM52.7633 216.753C52.7436 216.748 52.7014 216.729 52.653 216.673L50.3791 218.63C50.7863 219.103 51.3218 219.461 51.9372 219.637L52.7633 216.753ZM59.9774 221.467C59.2234 219.611 57.7426 218.129 55.978 217.405L54.8397 220.181C55.8417 220.592 56.7407 221.471 57.198 222.596L59.9774 221.467ZM29.4784 215.595C29.4471 215.669 29.4183 215.734 29.3922 215.788L32.0975 217.085C32.149 216.977 32.1984 216.866 32.2456 216.753L29.4784 215.595ZM43.5157 209.109H38.1479V212.109H43.5157V209.109ZM53.5908 231.558H55.3605V228.558H53.5908V231.558ZM52.653 216.673C52.0778 216.004 51.5634 215.255 51.0323 214.435C50.5186 213.643 49.9605 212.736 49.3701 211.897L46.9165 213.623C47.4632 214.4 47.9478 215.192 48.5145 216.066C49.0637 216.914 49.6671 217.802 50.3791 218.63L52.653 216.673ZM55.978 217.405C55.2831 217.12 54.5932 217.025 54.0677 216.961C53.487 216.891 53.1207 216.856 52.7633 216.753L51.9372 219.637C52.5827 219.822 53.253 219.884 53.7045 219.939C54.2113 220.001 54.5492 220.062 54.8397 220.181L55.978 217.405ZM60.3968 226.525L60.3982 224.136L57.3982 224.134L57.3968 226.523L60.3968 226.525ZM22.0361 223.347V227.149H25.0361V223.347H22.0361ZM55.3605 231.558C56.1511 231.558 56.895 231.562 57.4994 231.48C58.1469 231.393 58.8538 231.186 59.4378 230.602L57.3171 228.48C57.3833 228.414 57.4147 228.465 57.0997 228.507C56.7416 228.555 56.2359 228.558 55.3605 228.558V231.558ZM57.3968 226.523C57.3962 227.399 57.3927 227.905 57.3444 228.263C57.3019 228.578 57.2509 228.546 57.3171 228.48L59.4378 230.602C60.0218 230.018 60.23 229.312 60.3174 228.664C60.399 228.06 60.3963 227.316 60.3968 226.525L57.3968 226.523ZM57.198 222.596C57.234 222.685 57.2357 222.691 57.2431 222.717C57.2564 222.763 57.2808 222.862 57.328 223.105L60.2725 222.53C60.1603 221.955 60.0982 221.764 59.9774 221.467L57.198 222.596ZM60.3982 224.136C60.3986 223.579 60.4004 223.186 60.2726 222.53L57.328 223.105C57.397 223.458 57.3986 223.607 57.3982 224.134L60.3982 224.136ZM32.2456 216.753C32.8672 215.269 33.2986 214.241 33.6804 213.505C34.0709 212.752 34.3022 212.526 34.417 212.45L32.7551 209.952C31.9799 210.468 31.4605 211.269 31.0171 212.124C30.5651 212.996 30.0794 214.159 29.4784 215.595L32.2456 216.753ZM38.1479 209.109C36.9553 209.109 35.9473 209.107 35.13 209.191C34.2861 209.277 33.485 209.467 32.7551 209.952L34.417 212.45C34.5771 212.343 34.833 212.237 35.4355 212.175C36.0647 212.111 36.8926 212.109 38.1479 212.109V209.109ZM22.6776 220.367C22.6413 220.448 22.6158 220.504 22.5912 220.561L25.3464 221.748C25.3584 221.72 25.3714 221.691 25.4118 221.602L22.6776 220.367ZM25.0361 223.347C25.0361 223.248 25.0362 223.217 25.0367 223.187L22.0372 223.134C22.0361 223.197 22.0361 223.258 22.0361 223.347H25.0361ZM22.5911 220.561C22.2408 221.375 22.0526 222.249 22.0372 223.134L25.0367 223.187C25.0453 222.691 25.1506 222.203 25.3464 221.748L22.5911 220.561ZM43.5157 212.109C45.041 212.109 45.3533 212.141 45.7322 212.338L47.1145 209.675C45.9611 209.077 44.8458 209.109 43.5157 209.109V212.109ZM49.3701 211.897C48.7494 211.015 48.2461 210.263 47.1145 209.675L45.7322 212.338C46.133 212.546 46.2655 212.698 46.9165 213.623L49.3701 211.897ZM28.072 216.207C27.8612 216.243 27.7147 216.267 27.5736 216.297L28.1914 219.233C28.2594 219.218 28.3358 219.205 28.5711 219.165L28.072 216.207ZM25.4118 221.602C25.51 221.384 25.5422 221.314 25.5733 221.252L22.891 219.908C22.8265 220.037 22.7656 220.172 22.6776 220.367L25.4118 221.602ZM27.5736 216.297C25.544 216.724 23.82 218.053 22.891 219.908L25.5733 221.252C26.0927 220.215 27.0566 219.471 28.1914 219.233L27.5736 216.297ZM26.4453 228.558C25.8856 228.558 25.5629 228.557 25.3272 228.536C25.1111 228.517 25.114 228.491 25.1741 228.525L23.7179 231.148C24.1783 231.403 24.6479 231.488 25.0649 231.525C25.4622 231.56 25.939 231.558 26.4453 231.558V228.558ZM22.0361 227.149C22.0361 227.656 22.0348 228.132 22.0697 228.53C22.1063 228.947 22.1913 229.416 22.447 229.877L25.0698 228.42C25.1032 228.481 25.0771 228.483 25.0582 228.267C25.0375 228.032 25.0361 227.709 25.0361 227.149H22.0361ZM25.1741 228.525C25.1303 228.5 25.0942 228.464 25.0698 228.42L22.447 229.877C22.7435 230.411 23.1838 230.851 23.7179 231.148L25.1741 228.525Z" fill="#297DB5" fill-opacity="0.7"/>
<rect y="286" width="82" height="82" rx="13" fill="#F8FAFB"/>
<path d="M33.812 336.641C33.812 338.548 32.266 340.094 30.359 340.094C28.452 340.094 26.9061 338.548 26.9061 336.641M33.812 336.641C33.812 334.734 32.266 333.188 30.359 333.188C28.452 333.188 26.9061 334.734 26.9061 336.641M33.812 336.641H44.1708M26.9061 336.641L25.1796 336.641C24.2261 336.641 23.4531 335.868 23.4531 334.915V324.556L25.1796 314.197H42.645C45.7919 314.197 48.7681 315.627 50.7339 318.085L54.5296 322.829L56.4655 324.765C57.4369 325.737 57.9825 327.054 57.9825 328.428V334.915C57.9825 335.868 57.2096 336.641 56.2561 336.641L51.0767 336.641M51.0767 336.641C51.0767 338.548 49.5307 340.094 47.6237 340.094C45.7167 340.094 44.1708 338.548 44.1708 336.641M51.0767 336.641C51.0767 334.734 49.5307 333.188 47.6237 333.188C45.7167 333.188 44.1708 334.734 44.1708 336.641M37.2649 319.376V326.282M30.359 319.376H41.8387C42.2307 319.376 42.6111 319.51 42.9172 319.755L47.2334 323.208C48.5078 324.227 47.7869 326.282 46.1549 326.282H30.8438C29.7206 326.282 28.8964 325.227 29.1688 324.137L30.359 319.376Z" stroke="#297DB5" stroke-opacity="0.7" stroke-width="3" stroke-linejoin="round"/>
<rect x="212" y="74" width="82" height="82" rx="13" fill="#F8FAFB"/>
<path d="M247.75 122C247.75 123.933 246.183 125.5 244.25 125.5C242.317 125.5 240.75 123.933 240.75 122M247.75 122C247.75 120.067 246.183 118.5 244.25 118.5C242.317 118.5 240.75 120.067 240.75 122M247.75 122H260M240.75 122L238.005 122C237.087 122 236.325 121.29 236.259 120.375L235.5 109.75L256.5 104.5L270.5 113.25M267 122C267 123.933 265.433 125.5 263.5 125.5C261.567 125.5 260 123.933 260 122M267 122C267 120.067 265.433 118.5 263.5 118.5C261.567 118.5 260 120.067 260 122M267 122L269.625 122L270.5 113.25M270.5 113.25L244.25 111.5L240.75 108" stroke="#297DB5" stroke-opacity="0.7" stroke-width="3" stroke-linejoin="round"/>
<rect x="212" y="180" width="82" height="82" rx="13" fill="#F8FAFB"/>
<path d="M251.449 219.45L250.549 218.25C250.133 218.561 249.909 219.067 249.955 219.584C250.002 220.102 250.314 220.559 250.779 220.791L251.449 219.45ZM254.986 221.218L255.886 222.418C256.302 222.106 256.526 221.601 256.48 221.083C256.433 220.565 256.121 220.109 255.656 219.876L254.986 221.218ZM241.209 217.537L241.459 219.016C241.511 219.007 241.563 218.995 241.615 218.981L241.209 217.537ZM240.322 217.686L240.571 219.165H240.571L240.322 217.686ZM241.975 217.274L241.244 215.964L241.244 215.964L241.975 217.274ZM242.745 216.437L244.097 217.085L244.097 217.085L242.745 216.437ZM264.35 218.195L264.763 216.753L264.763 216.753L264.35 218.195ZM263.516 217.651L264.653 216.673L264.653 216.673L263.516 217.651ZM270.588 222.032L269.198 222.596V222.596L270.588 222.032ZM267.409 218.793L267.978 217.405L267.978 217.405L267.409 218.793ZM242.862 216.174L241.478 215.595L241.478 215.595L242.862 216.174ZM260.143 212.76L261.37 211.897V211.897L260.143 212.76ZM270.897 226.524L269.397 226.523V226.523L270.897 226.524ZM270.898 224.135L272.398 224.136V224.136L270.898 224.135ZM270.377 229.541L269.317 228.48L269.317 228.48L270.377 229.541ZM270.8 222.817L272.273 222.53L272.273 222.53L270.8 222.817ZM245.586 211.201L246.417 212.45V212.45L245.586 211.201ZM236.045 220.984L237.412 221.602L237.412 221.602L236.045 220.984ZM235.969 221.155L234.591 220.561L234.591 220.561L235.969 221.155ZM235.537 223.16L237.037 223.187L235.537 223.16ZM258.423 211.007L259.115 209.675V209.675L258.423 211.007ZM239.883 217.765L239.574 216.297H239.574L239.883 217.765ZM236.232 220.58L234.891 219.908L234.891 219.908L236.232 220.58ZM236.446 229.836L235.718 231.148L235.718 231.148L236.446 229.836ZM235.758 229.149L237.07 228.42L237.07 228.42L235.758 229.149ZM254.086 215.597L250.549 218.25L252.349 220.65L255.886 217.997L254.086 215.597ZM250.779 220.791L254.315 222.559L255.656 219.876L252.12 218.108L250.779 220.791ZM254.086 220.018L250.549 222.67L252.349 225.07L255.886 222.418L254.086 220.018ZM246.413 230.058C246.413 231.183 245.501 232.095 244.377 232.095V235.095C247.158 235.095 249.413 232.84 249.413 230.058H246.413ZM244.377 232.095C243.252 232.095 242.341 231.183 242.341 230.058H239.341C239.341 232.84 241.595 235.095 244.377 235.095V232.095ZM242.341 230.058C242.341 228.934 243.252 228.022 244.377 228.022V225.022C241.595 225.022 239.341 227.277 239.341 230.058H242.341ZM244.377 228.022C245.501 228.022 246.413 228.934 246.413 230.058H249.413C249.413 227.277 247.158 225.022 244.377 225.022V228.022ZM264.094 230.058C264.094 231.183 263.183 232.095 262.058 232.095V235.095C264.84 235.095 267.094 232.84 267.094 230.058H264.094ZM262.058 232.095C260.934 232.095 260.022 231.183 260.022 230.058H257.022C257.022 232.84 259.277 235.095 262.058 235.095V232.095ZM260.022 230.058C260.022 228.934 260.934 228.022 262.058 228.022V225.022C259.277 225.022 257.022 227.277 257.022 230.058H260.022ZM262.058 228.022C263.183 228.022 264.094 228.934 264.094 230.058H267.094C267.094 227.277 264.84 225.022 262.058 225.022V228.022ZM247.913 231.558H258.519V228.558H247.913V231.558ZM238.445 231.558H240.841V228.558H238.445V231.558ZM240.959 216.057L240.072 216.207L240.571 219.165L241.459 219.016L240.959 216.057ZM241.615 218.981C241.941 218.889 242.343 218.786 242.705 218.584L241.244 215.964C241.27 215.949 241.274 215.952 241.205 215.975C241.125 216.002 241.014 216.033 240.803 216.092L241.615 218.981ZM241.392 215.788C241.343 215.891 241.281 215.943 241.244 215.964L242.705 218.584C243.323 218.239 243.8 217.706 244.097 217.085L241.392 215.788ZM264.763 216.753C264.744 216.748 264.701 216.729 264.653 216.673L262.379 218.63C262.786 219.103 263.322 219.461 263.937 219.637L264.763 216.753ZM271.977 221.467C271.223 219.611 269.743 218.129 267.978 217.405L266.84 220.181C267.842 220.592 268.741 221.471 269.198 222.596L271.977 221.467ZM241.478 215.595C241.447 215.669 241.418 215.734 241.392 215.788L244.097 217.085C244.149 216.977 244.198 216.866 244.246 216.753L241.478 215.595ZM255.516 209.109H250.148V212.109H255.516V209.109ZM265.591 231.558H267.36V228.558H265.591V231.558ZM264.653 216.673C264.078 216.004 263.563 215.255 263.032 214.435C262.519 213.643 261.96 212.736 261.37 211.897L258.916 213.623C259.463 214.4 259.948 215.192 260.514 216.066C261.064 216.914 261.667 217.802 262.379 218.63L264.653 216.673ZM267.978 217.405C267.283 217.12 266.593 217.025 266.068 216.961C265.487 216.891 265.121 216.856 264.763 216.753L263.937 219.637C264.583 219.822 265.253 219.884 265.705 219.939C266.211 220.001 266.549 220.062 266.84 220.181L267.978 217.405ZM272.397 226.525L272.398 224.136L269.398 224.134L269.397 226.523L272.397 226.525ZM234.036 223.347V227.149H237.036V223.347H234.036ZM267.36 231.558C268.151 231.558 268.895 231.562 269.499 231.48C270.147 231.393 270.854 231.186 271.438 230.602L269.317 228.48C269.383 228.414 269.415 228.465 269.1 228.507C268.742 228.555 268.236 228.558 267.36 228.558V231.558ZM269.397 226.523C269.396 227.399 269.393 227.905 269.344 228.263C269.302 228.578 269.251 228.546 269.317 228.48L271.438 230.602C272.022 230.018 272.23 229.312 272.317 228.664C272.399 228.06 272.396 227.316 272.397 226.525L269.397 226.523ZM269.198 222.596C269.234 222.685 269.236 222.691 269.243 222.717C269.256 222.763 269.281 222.862 269.328 223.105L272.273 222.53C272.16 221.955 272.098 221.764 271.977 221.467L269.198 222.596ZM272.398 224.136C272.399 223.579 272.4 223.186 272.273 222.53L269.328 223.105C269.397 223.458 269.399 223.607 269.398 224.134L272.398 224.136ZM244.246 216.753C244.867 215.269 245.299 214.241 245.68 213.505C246.071 212.752 246.302 212.526 246.417 212.45L244.755 209.952C243.98 210.468 243.461 211.269 243.017 212.124C242.565 212.996 242.079 214.159 241.478 215.595L244.246 216.753ZM250.148 209.109C248.955 209.109 247.947 209.107 247.13 209.191C246.286 209.277 245.485 209.467 244.755 209.952L246.417 212.45C246.577 212.343 246.833 212.237 247.436 212.175C248.065 212.111 248.893 212.109 250.148 212.109V209.109ZM234.678 220.367C234.641 220.448 234.616 220.504 234.591 220.561L237.346 221.748C237.358 221.72 237.371 221.691 237.412 221.602L234.678 220.367ZM237.036 223.347C237.036 223.248 237.036 223.217 237.037 223.187L234.037 223.134C234.036 223.197 234.036 223.258 234.036 223.347H237.036ZM234.591 220.561C234.241 221.375 234.053 222.249 234.037 223.134L237.037 223.187C237.045 222.691 237.151 222.203 237.346 221.748L234.591 220.561ZM255.516 212.109C257.041 212.109 257.353 212.141 257.732 212.338L259.115 209.675C257.961 209.077 256.846 209.109 255.516 209.109V212.109ZM261.37 211.897C260.749 211.015 260.246 210.263 259.115 209.675L257.732 212.338C258.133 212.546 258.266 212.698 258.916 213.623L261.37 211.897ZM240.072 216.207C239.861 216.243 239.715 216.267 239.574 216.297L240.191 219.233C240.259 219.218 240.336 219.205 240.571 219.165L240.072 216.207ZM237.412 221.602C237.51 221.384 237.542 221.314 237.573 221.252L234.891 219.908C234.826 220.037 234.766 220.172 234.678 220.367L237.412 221.602ZM239.574 216.297C237.544 216.724 235.82 218.053 234.891 219.908L237.573 221.252C238.093 220.215 239.057 219.471 240.191 219.233L239.574 216.297ZM238.445 228.558C237.886 228.558 237.563 228.557 237.327 228.536C237.111 228.517 237.114 228.491 237.174 228.525L235.718 231.148C236.178 231.403 236.648 231.488 237.065 231.525C237.462 231.56 237.939 231.558 238.445 231.558V228.558ZM234.036 227.149C234.036 227.656 234.035 228.132 234.07 228.53C234.106 228.947 234.191 229.416 234.447 229.877L237.07 228.42C237.103 228.481 237.077 228.483 237.058 228.267C237.037 228.032 237.036 227.709 237.036 227.149H234.036ZM237.174 228.525C237.13 228.5 237.094 228.464 237.07 228.42L234.447 229.877C234.744 230.411 235.184 230.851 235.718 231.148L237.174 228.525Z" fill="#297DB5" fill-opacity="0.7"/>
<rect x="212" y="286" width="82" height="82" rx="13" fill="#F8FAFB"/>
<path d="M245.812 336.641C245.812 338.548 244.266 340.094 242.359 340.094C240.452 340.094 238.906 338.548 238.906 336.641M245.812 336.641C245.812 334.734 244.266 333.188 242.359 333.188C240.452 333.188 238.906 334.734 238.906 336.641M245.812 336.641H256.171M238.906 336.641L237.18 336.641C236.226 336.641 235.453 335.868 235.453 334.915V324.556L237.18 314.197H254.645C257.792 314.197 260.768 315.627 262.734 318.085L266.53 322.829L268.466 324.765C269.437 325.737 269.983 327.054 269.983 328.428V334.915C269.983 335.868 269.21 336.641 268.256 336.641L263.077 336.641M263.077 336.641C263.077 338.548 261.531 340.094 259.624 340.094C257.717 340.094 256.171 338.548 256.171 336.641M263.077 336.641C263.077 334.734 261.531 333.188 259.624 333.188C257.717 333.188 256.171 334.734 256.171 336.641M249.265 319.376V326.282M242.359 319.376H253.839C254.231 319.376 254.611 319.51 254.917 319.755L259.233 323.208C260.508 324.227 259.787 326.282 258.155 326.282H242.844C241.721 326.282 240.896 325.227 241.169 324.137L242.359 319.376Z" stroke="#297DB5" stroke-opacity="0.7" stroke-width="3" stroke-linejoin="round"/>
<rect x="318" y="-23" width="82" height="82" rx="13" fill="#F8FAFB"/>
<rect x="318" y="83" width="82" height="82" rx="13" fill="#F8FAFB"/>
<rect x="318" y="189" width="82" height="82" rx="13" fill="#F8FAFB"/>
<rect x="106" y="21" width="82" height="82" rx="13" fill="#F8FAFB"/>
<path d="M141.75 69C141.75 70.933 140.183 72.5 138.25 72.5C136.317 72.5 134.75 70.933 134.75 69M141.75 69C141.75 67.067 140.183 65.5 138.25 65.5C136.317 65.5 134.75 67.067 134.75 69M141.75 69H154M134.75 69L132.005 69C131.087 69 130.325 68.2904 130.259 67.3747L129.5 56.75L150.5 51.5L164.5 60.25M161 69C161 70.933 159.433 72.5 157.5 72.5C155.567 72.5 154 70.933 154 69M161 69C161 67.067 159.433 65.5 157.5 65.5C155.567 65.5 154 67.067 154 69M161 69L163.625 69L164.5 60.25M164.5 60.25L138.25 58.5L134.75 55" stroke="#297DB5" stroke-opacity="0.7" stroke-width="3" stroke-linejoin="round"/>
<rect x="106" y="127" width="82" height="82" rx="13" fill="#F8FAFB"/>
<path d="M145.449 166.45L144.549 165.25C144.133 165.561 143.909 166.067 143.955 166.584C144.002 167.102 144.314 167.559 144.779 167.791L145.449 166.45ZM148.986 168.218L149.886 169.418C150.302 169.106 150.526 168.601 150.48 168.083C150.433 167.565 150.121 167.109 149.656 166.876L148.986 168.218ZM135.209 164.537L135.459 166.016C135.511 166.007 135.563 165.995 135.615 165.981L135.209 164.537ZM134.322 164.686L134.571 166.165H134.571L134.322 164.686ZM135.975 164.274L135.244 162.964L135.244 162.964L135.975 164.274ZM136.745 163.437L138.097 164.085L138.097 164.085L136.745 163.437ZM158.35 165.195L158.763 163.753L158.763 163.753L158.35 165.195ZM157.516 164.651L158.653 163.673L158.653 163.673L157.516 164.651ZM164.588 169.032L163.198 169.596V169.596L164.588 169.032ZM161.409 165.793L161.978 164.405L161.978 164.405L161.409 165.793ZM136.862 163.174L135.478 162.595L135.478 162.595L136.862 163.174ZM154.143 159.76L155.37 158.897V158.897L154.143 159.76ZM164.897 173.524L163.397 173.523V173.523L164.897 173.524ZM164.898 171.135L166.398 171.136V171.136L164.898 171.135ZM164.377 176.541L163.317 175.48L163.317 175.48L164.377 176.541ZM164.8 169.817L166.273 169.53L166.273 169.53L164.8 169.817ZM139.586 158.201L140.417 159.45V159.45L139.586 158.201ZM130.045 167.984L131.412 168.602L131.412 168.602L130.045 167.984ZM129.969 168.155L128.591 167.561L128.591 167.561L129.969 168.155ZM129.537 170.16L131.037 170.187L129.537 170.16ZM152.423 158.007L153.115 156.675V156.675L152.423 158.007ZM133.883 164.765L133.574 163.297H133.574L133.883 164.765ZM130.232 167.58L128.891 166.908L128.891 166.908L130.232 167.58ZM130.446 176.836L129.718 178.148L129.718 178.148L130.446 176.836ZM129.758 176.149L131.07 175.42L131.07 175.42L129.758 176.149ZM148.086 162.597L144.549 165.25L146.349 167.65L149.886 164.997L148.086 162.597ZM144.779 167.791L148.315 169.559L149.656 166.876L146.12 165.108L144.779 167.791ZM148.086 167.018L144.549 169.67L146.349 172.07L149.886 169.418L148.086 167.018ZM140.413 177.058C140.413 178.183 139.501 179.095 138.377 179.095V182.095C141.158 182.095 143.413 179.84 143.413 177.058H140.413ZM138.377 179.095C137.252 179.095 136.341 178.183 136.341 177.058H133.341C133.341 179.84 135.595 182.095 138.377 182.095V179.095ZM136.341 177.058C136.341 175.934 137.252 175.022 138.377 175.022V172.022C135.595 172.022 133.341 174.277 133.341 177.058H136.341ZM138.377 175.022C139.501 175.022 140.413 175.934 140.413 177.058H143.413C143.413 174.277 141.158 172.022 138.377 172.022V175.022ZM158.094 177.058C158.094 178.183 157.183 179.095 156.058 179.095V182.095C158.84 182.095 161.094 179.84 161.094 177.058H158.094ZM156.058 179.095C154.934 179.095 154.022 178.183 154.022 177.058H151.022C151.022 179.84 153.277 182.095 156.058 182.095V179.095ZM154.022 177.058C154.022 175.934 154.934 175.022 156.058 175.022V172.022C153.277 172.022 151.022 174.277 151.022 177.058H154.022ZM156.058 175.022C157.183 175.022 158.094 175.934 158.094 177.058H161.094C161.094 174.277 158.84 172.022 156.058 172.022V175.022ZM141.913 178.558H152.519V175.558H141.913V178.558ZM132.445 178.558H134.841V175.558H132.445V178.558ZM134.959 163.057L134.072 163.207L134.571 166.165L135.459 166.016L134.959 163.057ZM135.615 165.981C135.941 165.889 136.343 165.786 136.705 165.584L135.244 162.964C135.27 162.949 135.274 162.952 135.205 162.975C135.125 163.002 135.014 163.033 134.803 163.092L135.615 165.981ZM135.392 162.788C135.343 162.891 135.281 162.943 135.244 162.964L136.705 165.584C137.323 165.239 137.8 164.706 138.097 164.085L135.392 162.788ZM158.763 163.753C158.744 163.748 158.701 163.729 158.653 163.673L156.379 165.63C156.786 166.103 157.322 166.461 157.937 166.637L158.763 163.753ZM165.977 168.467C165.223 166.611 163.743 165.129 161.978 164.405L160.84 167.181C161.842 167.592 162.741 168.471 163.198 169.596L165.977 168.467ZM135.478 162.595C135.447 162.669 135.418 162.734 135.392 162.788L138.097 164.085C138.149 163.977 138.198 163.866 138.246 163.753L135.478 162.595ZM149.516 156.109H144.148V159.109H149.516V156.109ZM159.591 178.558H161.36V175.558H159.591V178.558ZM158.653 163.673C158.078 163.004 157.563 162.255 157.032 161.435C156.519 160.643 155.96 159.736 155.37 158.897L152.916 160.623C153.463 161.4 153.948 162.192 154.514 163.066C155.064 163.914 155.667 164.802 156.379 165.63L158.653 163.673ZM161.978 164.405C161.283 164.12 160.593 164.025 160.068 163.961C159.487 163.891 159.121 163.856 158.763 163.753L157.937 166.637C158.583 166.822 159.253 166.884 159.705 166.939C160.211 167.001 160.549 167.062 160.84 167.181L161.978 164.405ZM166.397 173.525L166.398 171.136L163.398 171.134L163.397 173.523L166.397 173.525ZM128.036 170.347V174.149H131.036V170.347H128.036ZM161.36 178.558C162.151 178.558 162.895 178.562 163.499 178.48C164.147 178.393 164.854 178.186 165.438 177.602L163.317 175.48C163.383 175.414 163.415 175.465 163.1 175.507C162.742 175.555 162.236 175.558 161.36 175.558V178.558ZM163.397 173.523C163.396 174.399 163.393 174.905 163.344 175.263C163.302 175.578 163.251 175.546 163.317 175.48L165.438 177.602C166.022 177.018 166.23 176.312 166.317 175.664C166.399 175.06 166.396 174.316 166.397 173.525L163.397 173.523ZM163.198 169.596C163.234 169.685 163.236 169.691 163.243 169.717C163.256 169.763 163.281 169.862 163.328 170.105L166.273 169.53C166.16 168.955 166.098 168.764 165.977 168.467L163.198 169.596ZM166.398 171.136C166.399 170.579 166.4 170.186 166.273 169.53L163.328 170.105C163.397 170.458 163.399 170.607 163.398 171.134L166.398 171.136ZM138.246 163.753C138.867 162.269 139.299 161.241 139.68 160.505C140.071 159.752 140.302 159.526 140.417 159.45L138.755 156.952C137.98 157.468 137.461 158.269 137.017 159.124C136.565 159.996 136.079 161.159 135.478 162.595L138.246 163.753ZM144.148 156.109C142.955 156.109 141.947 156.107 141.13 156.191C140.286 156.277 139.485 156.467 138.755 156.952L140.417 159.45C140.577 159.343 140.833 159.237 141.436 159.175C142.065 159.111 142.893 159.109 144.148 159.109V156.109ZM128.678 167.367C128.641 167.448 128.616 167.504 128.591 167.561L131.346 168.748C131.358 168.72 131.371 168.691 131.412 168.602L128.678 167.367ZM131.036 170.347C131.036 170.248 131.036 170.217 131.037 170.187L128.037 170.134C128.036 170.197 128.036 170.258 128.036 170.347H131.036ZM128.591 167.561C128.241 168.375 128.053 169.249 128.037 170.134L131.037 170.187C131.045 169.691 131.151 169.203 131.346 168.748L128.591 167.561ZM149.516 159.109C151.041 159.109 151.353 159.141 151.732 159.338L153.115 156.675C151.961 156.077 150.846 156.109 149.516 156.109V159.109ZM155.37 158.897C154.749 158.015 154.246 157.263 153.115 156.675L151.732 159.338C152.133 159.546 152.266 159.698 152.916 160.623L155.37 158.897ZM134.072 163.207C133.861 163.243 133.715 163.267 133.574 163.297L134.191 166.233C134.259 166.218 134.336 166.205 134.571 166.165L134.072 163.207ZM131.412 168.602C131.51 168.384 131.542 168.314 131.573 168.252L128.891 166.908C128.826 167.037 128.766 167.172 128.678 167.367L131.412 168.602ZM133.574 163.297C131.544 163.724 129.82 165.053 128.891 166.908L131.573 168.252C132.093 167.215 133.057 166.471 134.191 166.233L133.574 163.297ZM132.445 175.558C131.886 175.558 131.563 175.557 131.327 175.536C131.111 175.517 131.114 175.491 131.174 175.525L129.718 178.148C130.178 178.403 130.648 178.488 131.065 178.525C131.462 178.56 131.939 178.558 132.445 178.558V175.558ZM128.036 174.149C128.036 174.656 128.035 175.132 128.07 175.53C128.106 175.947 128.191 176.416 128.447 176.877L131.07 175.42C131.103 175.481 131.077 175.483 131.058 175.267C131.037 175.032 131.036 174.709 131.036 174.149H128.036ZM131.174 175.525C131.13 175.5 131.094 175.464 131.07 175.42L128.447 176.877C128.744 177.411 129.184 177.851 129.718 178.148L131.174 175.525Z" fill="#297DB5" fill-opacity="0.7"/>
<rect x="106" y="233" width="82" height="82" rx="13" fill="#F8FAFB"/>
<path d="M139.812 283.641C139.812 285.548 138.266 287.094 136.359 287.094C134.452 287.094 132.906 285.548 132.906 283.641M139.812 283.641C139.812 281.734 138.266 280.188 136.359 280.188C134.452 280.188 132.906 281.734 132.906 283.641M139.812 283.641H150.171M132.906 283.641L131.18 283.641C130.226 283.641 129.453 282.868 129.453 281.915V271.556L131.18 261.197H148.645C151.792 261.197 154.768 262.627 156.734 265.085L160.53 269.829L162.466 271.765C163.437 272.737 163.983 274.054 163.983 275.428V281.915C163.983 282.868 163.21 283.641 162.256 283.641L157.077 283.641M157.077 283.641C157.077 285.548 155.531 287.094 153.624 287.094C151.717 287.094 150.171 285.548 150.171 283.641M157.077 283.641C157.077 281.734 155.531 280.188 153.624 280.188C151.717 280.188 150.171 281.734 150.171 283.641M143.265 266.376V273.282M136.359 266.376H147.839C148.231 266.376 148.611 266.51 148.917 266.755L153.233 270.208C154.508 271.227 153.787 273.282 152.155 273.282H136.844C135.721 273.282 134.896 272.227 135.169 271.137L136.359 266.376Z" stroke="#297DB5" stroke-opacity="0.7" stroke-width="3" stroke-linejoin="round"/>
</svg>
