<svg width="152" height="45" viewBox="0 0 152 45" fill="none" xmlns="http://www.w3.org/2000/svg">
<rect x="0.5625" y="0.5625" width="150.75" height="43.875" rx="5.0625" fill="black"/>
<rect x="0.5625" y="0.5625" width="150.75" height="43.875" rx="5.0625" stroke="#A6A6A6" stroke-width="1.125"/>
<path d="M76.6531 24.47C74.0071 24.47 71.8505 26.4826 71.8505 29.2546C71.8505 32.0097 74.0071 34.0392 76.6531 34.0392C79.3002 34.0392 81.4569 32.0097 81.4569 29.2546C81.4557 26.4826 79.2991 24.47 76.6531 24.47ZM76.6531 32.156C75.203 32.156 73.9531 30.9601 73.9531 29.2557C73.9531 27.5334 75.2041 26.3555 76.6531 26.3555C78.1032 26.3555 79.3531 27.5334 79.3531 29.2557C79.3531 30.959 78.1032 32.156 76.6531 32.156ZM66.1749 24.47C63.5289 24.47 61.3722 26.4826 61.3722 29.2546C61.3722 32.0097 63.5289 34.0392 66.1749 34.0392C68.822 34.0392 70.9786 32.0097 70.9786 29.2546C70.9786 26.4826 68.822 24.47 66.1749 24.47ZM66.1749 32.156C64.7247 32.156 63.4749 30.9601 63.4749 29.2557C63.4749 27.5334 64.7259 26.3555 66.1749 26.3555C67.625 26.3555 68.8749 27.5334 68.8749 29.2557C68.876 30.959 67.625 32.156 66.1749 32.156ZM53.7121 25.9392V27.9687H58.5699C58.4247 29.1106 58.0445 29.9442 57.464 30.5236C56.7575 31.2301 55.6516 32.0097 53.7121 32.0097C50.7219 32.0097 48.3841 29.5989 48.3841 26.6086C48.3841 23.6184 50.7219 21.2075 53.7121 21.2075C55.3254 21.2075 56.5032 21.842 57.3729 22.6576L58.805 21.2255C57.59 20.0656 55.9779 19.178 53.7121 19.178C49.616 19.178 46.1724 22.5125 46.1724 26.6086C46.1724 30.7047 49.616 34.0392 53.7121 34.0392C55.9227 34.0392 57.5911 33.3136 58.895 31.9546C60.236 30.6136 60.6534 28.7281 60.6534 27.206C60.6534 26.7357 60.6174 26.3004 60.5442 25.9381H53.7121V25.9392ZM104.684 27.5154C104.285 26.4466 103.07 24.47 100.587 24.47C98.1226 24.47 96.074 26.4095 96.074 29.2546C96.074 31.9366 98.1046 34.0392 100.823 34.0392C103.015 34.0392 104.284 32.6982 104.811 31.9186L103.179 30.8307C102.636 31.6284 101.892 32.1537 100.823 32.1537C99.7539 32.1537 98.9922 31.6644 98.5029 30.7036L104.901 28.0576L104.684 27.5154ZM98.1586 29.1106C98.1046 27.2611 99.5907 26.3195 100.661 26.3195C101.494 26.3195 102.201 26.7369 102.437 27.3342L98.1586 29.1106ZM92.9577 33.7501H95.0592V19.6865H92.9577V33.7501ZM89.513 25.5399H89.441C88.9696 24.9774 88.0629 24.47 86.9221 24.47C84.5292 24.47 82.3366 26.5726 82.3366 29.2737C82.3366 31.9557 84.5292 34.0404 86.9221 34.0404C88.064 34.0404 88.9696 33.533 89.441 32.9536H89.513V33.6421C89.513 35.4725 88.5342 36.4512 86.9581 36.4512C85.6711 36.4512 84.8735 35.5276 84.5472 34.748L82.7169 35.5096C83.2422 36.7775 84.6372 38.3367 86.9581 38.3367C89.423 38.3367 91.5076 36.8866 91.5076 33.3519V24.7614H89.5141V25.5399H89.513ZM87.1032 32.156C85.6531 32.156 84.4392 30.941 84.4392 29.2737C84.4392 27.5874 85.6531 26.3555 87.1032 26.3555C88.5342 26.3555 89.6581 27.5874 89.6581 29.2737C89.6581 30.941 88.5342 32.156 87.1032 32.156ZM114.532 19.6865H109.502V33.7501H111.6V28.4221H114.531C116.857 28.4221 119.145 26.738 119.145 24.0549C119.145 21.3717 116.858 19.6865 114.532 19.6865ZM114.586 26.4646H111.6V21.644H114.586C116.155 21.644 117.046 22.9434 117.046 24.0549C117.046 25.1439 116.155 26.4646 114.586 26.4646ZM127.559 24.4452C126.039 24.4452 124.466 25.1146 123.814 26.5985L125.677 27.3759C126.075 26.5985 126.818 26.3442 127.595 26.3442C128.681 26.3442 129.785 26.9956 129.803 28.1532V28.2984C129.422 28.0812 128.608 27.7561 127.613 27.7561C125.605 27.7561 123.56 28.8597 123.56 30.9219C123.56 32.804 125.207 34.0156 127.052 34.0156C128.463 34.0156 129.241 33.3822 129.729 32.6397H129.801V33.7254H131.829V28.3332C131.83 25.838 129.965 24.4452 127.559 24.4452ZM127.305 32.1526C126.619 32.1526 125.659 31.8084 125.659 30.9579C125.659 29.8722 126.854 29.456 127.886 29.456C128.807 29.456 129.242 29.6551 129.803 29.9262C129.639 31.2301 128.518 32.1526 127.305 32.1526ZM139.211 24.7524L136.805 30.8499H136.733L134.235 24.7524H131.974L135.719 33.2742L133.584 38.015H135.773L141.545 24.7524H139.211ZM120.304 33.7501H122.402V19.6865H120.304V33.7501Z" fill="white"/>
<path d="M53.3452 11.5233C53.3452 12.4661 53.0662 13.2165 52.5071 13.7767C51.8726 14.4427 51.0446 14.7757 50.0276 14.7757C49.0534 14.7757 48.2242 14.4382 47.5436 13.7632C46.8619 13.0871 46.521 12.2501 46.521 11.2511C46.521 10.251 46.8619 9.41397 47.5436 8.73897C48.2242 8.06284 49.0534 7.72534 50.0276 7.72534C50.5114 7.72534 50.9737 7.81984 51.4125 8.00772C51.8524 8.19672 52.2045 8.44759 52.4677 8.76147L51.8749 9.35547C51.4282 8.82109 50.8129 8.55447 50.0265 8.55447C49.3155 8.55447 48.7012 8.80422 48.1826 9.30372C47.664 9.80322 47.4052 10.4523 47.4052 11.25C47.4052 12.0476 47.664 12.6967 48.1826 13.1962C48.7012 13.6957 49.3155 13.9455 50.0265 13.9455C50.7802 13.9455 51.4091 13.6946 51.912 13.1917C52.2382 12.8643 52.4272 12.4087 52.4779 11.8248H50.0265V11.0137H53.2969C53.3306 11.1903 53.3452 11.3602 53.3452 11.5233Z" fill="white"/>
<path d="M58.5316 8.70416H55.4581V10.8439H58.2301V11.655H55.4581V13.7948H58.5316V14.625H54.5907V7.87503H58.5316V8.70416Z" fill="white"/>
<path d="M62.1888 14.625H61.3215V8.70416H59.436V7.87503H64.0744V8.70416H62.1888V14.625Z" fill="white"/>
<path d="M67.4302 14.625V7.87503H68.2975V14.625H67.4302Z" fill="white"/>
<path d="M72.1441 14.625H71.2767V8.70416H69.3912V7.87503H74.0296V8.70416H72.1441V14.625Z" fill="white"/>
<path d="M82.81 13.7531C82.1462 14.4349 81.3216 14.7758 80.335 14.7758C79.3484 14.7758 78.5237 14.4349 77.8611 13.7531C77.1974 13.0714 76.8666 12.2366 76.8666 11.25C76.8666 10.2634 77.1974 9.42864 77.8611 8.74689C78.5237 8.06514 79.3484 7.72314 80.335 7.72314C81.316 7.72314 82.1395 8.06627 82.8055 8.75139C83.4715 9.43652 83.8045 10.269 83.8045 11.25C83.8045 12.2366 83.4726 13.0714 82.81 13.7531ZM78.5012 13.1873C79.0007 13.6935 79.6116 13.9455 80.335 13.9455C81.0584 13.9455 81.6704 13.6924 82.1687 13.1873C82.6682 12.681 82.9191 12.0353 82.9191 11.25C82.9191 10.4648 82.6682 9.81902 82.1687 9.31277C81.6704 8.80652 81.0584 8.55452 80.335 8.55452C79.6116 8.55452 79.0007 8.80764 78.5012 9.31277C78.0029 9.81902 77.752 10.4648 77.752 11.25C77.752 12.0353 78.0029 12.681 78.5012 13.1873Z" fill="white"/>
<path d="M85.0218 14.625V7.87503H86.077L89.3575 13.1254H89.3946L89.3575 11.8249V7.87503H90.2249V14.625H89.3193L85.8869 9.11928H85.8498L85.8869 10.4198V14.625H85.0218Z" fill="white"/>
<path d="M53.3452 11.5233C53.3452 12.4661 53.0662 13.2165 52.5071 13.7767C51.8726 14.4427 51.0446 14.7757 50.0276 14.7757C49.0534 14.7757 48.2242 14.4382 47.5436 13.7632C46.8619 13.0871 46.521 12.2501 46.521 11.2511C46.521 10.251 46.8619 9.41397 47.5436 8.73897C48.2242 8.06284 49.0534 7.72534 50.0276 7.72534C50.5114 7.72534 50.9737 7.81984 51.4125 8.00772C51.8524 8.19672 52.2045 8.44759 52.4677 8.76147L51.8749 9.35547C51.4282 8.82109 50.8129 8.55447 50.0265 8.55447C49.3155 8.55447 48.7012 8.80422 48.1826 9.30372C47.664 9.80322 47.4052 10.4523 47.4052 11.25C47.4052 12.0476 47.664 12.6967 48.1826 13.1962C48.7012 13.6957 49.3155 13.9455 50.0265 13.9455C50.7802 13.9455 51.4091 13.6946 51.912 13.1917C52.2382 12.8643 52.4272 12.4087 52.4779 11.8248H50.0265V11.0137H53.2969C53.3306 11.1903 53.3452 11.3602 53.3452 11.5233Z" stroke="white" stroke-width="0.225" stroke-miterlimit="10"/>
<path d="M58.5316 8.70416H55.4581V10.8439H58.2301V11.655H55.4581V13.7948H58.5316V14.625H54.5907V7.87503H58.5316V8.70416Z" stroke="white" stroke-width="0.225" stroke-miterlimit="10"/>
<path d="M62.1888 14.625H61.3215V8.70416H59.436V7.87503H64.0744V8.70416H62.1888V14.625Z" stroke="white" stroke-width="0.225" stroke-miterlimit="10"/>
<path d="M67.4302 14.625V7.87503H68.2975V14.625H67.4302Z" stroke="white" stroke-width="0.225" stroke-miterlimit="10"/>
<path d="M72.1441 14.625H71.2767V8.70416H69.3912V7.87503H74.0296V8.70416H72.1441V14.625Z" stroke="white" stroke-width="0.225" stroke-miterlimit="10"/>
<path d="M82.81 13.7531C82.1462 14.4349 81.3216 14.7758 80.335 14.7758C79.3484 14.7758 78.5237 14.4349 77.8611 13.7531C77.1974 13.0714 76.8666 12.2366 76.8666 11.25C76.8666 10.2634 77.1974 9.42864 77.8611 8.74689C78.5237 8.06514 79.3484 7.72314 80.335 7.72314C81.316 7.72314 82.1395 8.06627 82.8055 8.75139C83.4715 9.43652 83.8045 10.269 83.8045 11.25C83.8045 12.2366 83.4726 13.0714 82.81 13.7531ZM78.5012 13.1873C79.0007 13.6935 79.6116 13.9455 80.335 13.9455C81.0584 13.9455 81.6704 13.6924 82.1687 13.1873C82.6682 12.681 82.9191 12.0353 82.9191 11.25C82.9191 10.4648 82.6682 9.81902 82.1687 9.31277C81.6704 8.80652 81.0584 8.55452 80.335 8.55452C79.6116 8.55452 79.0007 8.80764 78.5012 9.31277C78.0029 9.81902 77.752 10.4648 77.752 11.25C77.752 12.0353 78.0029 12.681 78.5012 13.1873Z" stroke="white" stroke-width="0.225" stroke-miterlimit="10"/>
<path d="M85.0218 14.625V7.87503H86.077L89.3575 13.1254H89.3946L89.3575 11.8249V7.87503H90.2249V14.625H89.3193L85.8869 9.11928H85.8498L85.8869 10.4198V14.625H85.0218Z" stroke="white" stroke-width="0.225" stroke-miterlimit="10"/>
<g filter="url(#filter0_ii_4_1658)">
<path d="M11.7406 8.4802C11.4132 8.8267 11.2197 9.36445 11.2197 10.0608V34.9413C11.2197 35.6388 11.4132 36.1754 11.7406 36.5219L11.8239 36.6029L25.7615 22.6653V22.5011V22.3368L11.8239 8.39807L11.7406 8.4802Z" fill="url(#paint0_linear_4_1658)"/>
<path d="M30.4064 27.3127L25.7612 22.6653V22.5011V22.3368L30.4075 17.6906L30.5121 17.7502L36.0167 20.8777C37.5884 21.7709 37.5884 23.2323 36.0167 24.1267L30.5121 27.2542L30.4064 27.3127Z" fill="url(#paint1_linear_4_1658)"/>
<g filter="url(#filter1_i_4_1658)">
<path d="M30.5125 27.2531L25.7605 22.5011L11.7407 36.522C12.2582 37.071 13.1143 37.1385 14.0785 36.5917L30.5125 27.2531Z" fill="url(#paint2_linear_4_1658)"/>
</g>
<path d="M30.5125 17.749L14.0785 8.41153C13.1143 7.86366 12.2582 7.93228 11.7407 8.48128L25.7616 22.5022L30.5125 17.749Z" fill="url(#paint3_linear_4_1658)"/>
</g>
<defs>
<filter id="filter0_ii_4_1658" x="11.2197" y="8.03345" width="25.9756" height="28.9359" filterUnits="userSpaceOnUse" color-interpolation-filters="sRGB">
<feFlood flood-opacity="0" result="BackgroundImageFix"/>
<feBlend mode="normal" in="SourceGraphic" in2="BackgroundImageFix" result="shape"/>
<feColorMatrix in="SourceAlpha" type="matrix" values="0 0 0 0 0 0 0 0 0 0 0 0 0 0 0 0 0 0 127 0" result="hardAlpha"/>
<feOffset dy="-0.16875"/>
<feComposite in2="hardAlpha" operator="arithmetic" k2="-1" k3="1"/>
<feColorMatrix type="matrix" values="0 0 0 0 0 0 0 0 0 0 0 0 0 0 0 0 0 0 0.12 0"/>
<feBlend mode="normal" in2="shape" result="effect1_innerShadow_4_1658"/>
<feColorMatrix in="SourceAlpha" type="matrix" values="0 0 0 0 0 0 0 0 0 0 0 0 0 0 0 0 0 0 127 0" result="hardAlpha"/>
<feOffset dy="0.16875"/>
<feComposite in2="hardAlpha" operator="arithmetic" k2="-1" k3="1"/>
<feColorMatrix type="matrix" values="0 0 0 0 1 0 0 0 0 1 0 0 0 0 1 0 0 0 0.25 0"/>
<feBlend mode="normal" in2="effect1_innerShadow_4_1658" result="effect2_innerShadow_4_1658"/>
</filter>
<filter id="filter1_i_4_1658" x="11.7407" y="22.5011" width="18.772" height="14.4683" filterUnits="userSpaceOnUse" color-interpolation-filters="sRGB">
<feFlood flood-opacity="0" result="BackgroundImageFix"/>
<feBlend mode="normal" in="SourceGraphic" in2="BackgroundImageFix" result="shape"/>
<feColorMatrix in="SourceAlpha" type="matrix" values="0 0 0 0 0 0 0 0 0 0 0 0 0 0 0 0 0 0 127 0" result="hardAlpha"/>
<feOffset dy="-0.16875"/>
<feComposite in2="hardAlpha" operator="arithmetic" k2="-1" k3="1"/>
<feColorMatrix type="matrix" values="0 0 0 0 0 0 0 0 0 0 0 0 0 0 0 0 0 0 0.08 0"/>
<feBlend mode="normal" in2="shape" result="effect1_innerShadow_4_1658"/>
</filter>
<linearGradient id="paint0_linear_4_1658" x1="24.526" y1="9.79757" x2="5.64625" y2="28.6773" gradientUnits="userSpaceOnUse">
<stop stop-color="#00A0FF"/>
<stop offset="0.0066" stop-color="#00A1FF"/>
<stop offset="0.2601" stop-color="#00BEFF"/>
<stop offset="0.5122" stop-color="#00D2FF"/>
<stop offset="0.7604" stop-color="#00DFFF"/>
<stop offset="1" stop-color="#00E3FF"/>
</linearGradient>
<linearGradient id="paint1_linear_4_1658" x1="38.0625" y1="22.5011" x2="10.8422" y2="22.5011" gradientUnits="userSpaceOnUse">
<stop stop-color="#FFE000"/>
<stop offset="0.4087" stop-color="#FFBD00"/>
<stop offset="0.7754" stop-color="#FFA500"/>
<stop offset="1" stop-color="#FF9C00"/>
</linearGradient>
<linearGradient id="paint2_linear_4_1658" x1="27.9318" y1="25.0817" x2="2.32853" y2="50.6851" gradientUnits="userSpaceOnUse">
<stop stop-color="#FF3A44"/>
<stop offset="1" stop-color="#C31162"/>
</linearGradient>
<linearGradient id="paint3_linear_4_1658" x1="8.2098" y1="0.198808" x2="19.6424" y2="11.6314" gradientUnits="userSpaceOnUse">
<stop stop-color="#32A071"/>
<stop offset="0.0685" stop-color="#2DA771"/>
<stop offset="0.4762" stop-color="#15CF74"/>
<stop offset="0.8009" stop-color="#06E775"/>
<stop offset="1" stop-color="#00F076"/>
</linearGradient>
</defs>
</svg>
